<svg width="256" height="256" viewBox="0 0 256 256" fill="none" xmlns="http://www.w3.org/2000/svg">
<g clip-path="url(#clip0_2_23)">
<rect width="256" height="256" rx="128" fill="#19161D"/>
<path d="M139.039 128C139.039 121.903 134.097 116.961 128 116.961C121.903 116.961 116.961 121.903 116.961 128C116.961 134.097 121.903 139.039 128 139.039C134.097 139.039 139.039 134.097 139.039 128Z" fill="#D9D9D9" stroke="#D9D9D9" stroke-width="2"/>
<path d="M168.157 139.039L198.275 139.039C204.372 139.039 209.314 134.097 209.314 128C209.314 121.903 204.372 116.961 198.275 116.961L168.157 116.961C162.06 116.961 157.118 121.903 157.118 128C157.118 134.097 162.06 139.039 168.157 139.039Z" fill="#D9D9D9" stroke="#D9D9D9" stroke-width="2"/>
<path d="M116.961 57.7255L116.961 87.8432C116.961 93.9401 121.903 98.8825 128 98.8825C134.097 98.8825 139.039 93.94 139.039 87.8432L139.039 57.7255C139.039 51.6287 134.097 46.6863 128 46.6863C121.903 46.6863 116.961 51.6287 116.961 57.7255Z" fill="#D9D9D9" stroke="#D9D9D9" stroke-width="2"/>
<path d="M57.7255 139.039L87.8432 139.039C93.94 139.039 98.8824 134.097 98.8824 128C98.8824 121.903 93.94 116.961 87.8432 116.961L57.7255 116.961C51.6287 116.961 46.6863 121.903 46.6863 128C46.6863 134.097 51.6287 139.039 57.7255 139.039Z" fill="#D9D9D9" stroke="#D9D9D9" stroke-width="2"/>
<path d="M117.314 167.602L117.314 197.72C117.314 203.817 122.256 208.759 128.353 208.759C134.45 208.759 139.392 203.817 139.392 197.72L139.392 167.602C139.392 161.505 134.45 156.563 128.353 156.563C122.256 156.563 117.314 161.505 117.314 167.602Z" fill="#D9D9D9" stroke="#D9D9D9" stroke-width="2"/>
</g>
<defs>
<clipPath id="clip0_2_23">
<rect width="256" height="256" fill="white"/>
</clipPath>
</defs>
</svg>
