<svg width="36" height="36" viewBox="0 0 36 36" fill="none" xmlns="http://www.w3.org/2000/svg">
<rect x="17" y="21" width="2" height="8" rx="1" fill="#D9D9D9"/>
<rect x="21" y="19" width="2" height="8" rx="1" transform="rotate(-90 21 19)" fill="#D9D9D9"/>
<rect x="17" y="7" width="2" height="8" rx="1" fill="#D9D9D9"/>
<rect x="7" y="19" width="2" height="8" rx="1" transform="rotate(-90 7 19)" fill="#D9D9D9"/>
<circle cx="18" cy="18" r="1" fill="#D9D9D9"/>
<path fill-rule="evenodd" clip-rule="evenodd" d="M14 10C11.7909 10 10 11.7909 10 14V14.5714H12V14C12 12.8954 12.8954 12 14 12H14.5714V10H14ZM14 26H14.5714V24H14C12.8954 24 12 23.1046 12 22V21.4286H10V22C10 24.2091 11.7909 26 14 26ZM22 10C24.2091 10 26 11.7909 26 14V14.5714H24V14C24 12.8954 23.1046 12 22 12H21.4286V10H22ZM22 26C24.2091 26 26 24.2091 26 22V21.4286H24V22C24 23.1046 23.1046 24 22 24H21.4286V26H22Z" fill="#D9D9D9"/>
</svg>
